<svg xmlns="http://www.w3.org/2000/svg" width="24" height="24" viewBox="0 0 24 24" fill="none">
    <path opacity="0.4" d="M4.8 10.1c1-1.9 1.8-3.4 2.4-4.3.3-.5.7-.9 1-1.2.4-.3.9-.5 1.4-.3.5.2.9.6 1.1 1 .2.4.3 1 .4 1.6.1 1.2.1 2.9.1 5.1h0v4s0 0 0 0c0 .7 0 1.2 0 1.7 0 .5-.2.9-.5 1.3-.4.4-.8.6-1.3.6-.4 0-1 0-1.6 0h-2.2c-1 0-1.8 0-2.5-.1-.7-.1-1.3-.4-1.7-1.1-.3-.7-.2-1.4 0-2 .2-.6.7-1.4 1.2-2.4l2.1-4Z" fill="currentColor" />
    <path d="M19.2 10.1c-1-1.9-1.8-3.4-2.4-4.3-.3-.5-.7-.9-1-1.2-.4-.3-.9-.5-1.4-.3-.5.2-.9.6-1.1 1-.2.4-.3 1-.4 1.6-.1 1.2-.1 2.9-.1 5.1h0v4s0 0 0 0c0 .7 0 1.2 0 1.7 0 .5.2.9.5 1.3.4.4.8.6 1.3.6.4 0 1 0 1.6 0h2.2c1 0 1.8 0 2.5-.1.7-.1 1.3-.4 1.7-1.1.3-.7.2-1.4 0-2-.2-.6-.7-1.4-1.2-2.4l-2.1-4Z" fill="currentColor" />
</svg>