<svg xmlns="http://www.w3.org/2000/svg" width="24" height="24" viewBox="0 0 24 24" fill="none">
    <path opacity="0.4" d="M2 21.5L4.5 16L8 22L2 21.5Z" fill="currentColor" />
    <path opacity="0.4" d="M22 21.5L19.5 16L16 22L22 21.5Z" fill="currentColor" />
    <path opacity="0.4" d="M12.0404 2L8.5 6.96857L15.5 7L12.0404 2Z" fill="currentColor" />
    <path d="M12 14L17.5 19M12 14L6.5 19M12 14V7" stroke="currentColor" stroke-width="2" />
    <path d="M2 21.5L4.5 16L8 22L2 21.5Z" stroke="currentColor" stroke-width="2" stroke-linecap="round" stroke-linejoin="round" />
    <path d="M22 21.5L19.5 16L16 22L22 21.5Z" stroke="currentColor" stroke-width="2" stroke-linecap="round" stroke-linejoin="round" />
    <path d="M12.0404 2L8.5 6.96857L15.5 7L12.0404 2Z" stroke="currentColor" stroke-width="2" stroke-linecap="round" stroke-linejoin="round" />
</svg>