<svg xmlns="http://www.w3.org/2000/svg" width="24" height="24" viewBox="0 0 24 24" fill="none">
    <path opacity="0.4" d="M20.905 3.09501C22.495 4.68503 22.3317 7.30882 20.5567 8.68934L9.73444 16.7972L7.20276 14.2656L15.3107 3.4433C16.6912 1.66834 19.315 1.50499 20.905 3.09501Z" fill="currentColor" />
    <circle opacity="0.4" cx="18.5" cy="18.5" r="2.5" fill="currentColor" />
    <path d="M5.45946 20L20.5567 8.68934C22.3317 7.30882 22.495 4.68503 20.905 3.09501C19.315 1.50499 16.6912 1.66834 15.3107 3.4433L4 18.5405" stroke="currentColor" stroke-width="2" />
    <path d="M10 17L7 14" stroke="currentColor" stroke-width="2" />
    <circle cx="18.5" cy="18.5" r="2.5" stroke="currentColor" stroke-width="2" />
    <path d="M5.31371 18.6863C6.22876 19.6013 6.22876 21.0849 5.31371 22L2 18.6863C2.91506 17.7712 4.39865 17.7712 5.31371 18.6863Z" stroke="currentColor" stroke-width="2" stroke-linejoin="round" />
</svg>