<svg xmlns="http://www.w3.org/2000/svg" width="24" height="24" viewBox="0 0 24 24" fill="none">
    <path opacity="0.4" d="M9 4L5.5 2L2 4V8L5.5 10V6L9 4Z" fill="currentColor" />
    <path opacity="0.4" d="M15.5 16L12 14L8.5 16V20L12 22V18L15.5 16Z" fill="currentColor" />
    <path opacity="0.4" d="M22 4L18.5 2L15 4V8L18.5 10V6L22 4Z" fill="currentColor" />
    <path d="M9 4L5.5 2L2 4V8L5.5 10L9 8V4Z" stroke="currentColor" stroke-width="2" stroke-linejoin="round" />
    <path d="M22 4L18.5 2L15 4V8L18.5 10L22 8V4Z" stroke="currentColor" stroke-width="2" stroke-linejoin="round" />
    <path d="M15.5 16L12 14L8.5 16V20L12 22L15.5 20V16Z" stroke="currentColor" stroke-width="2" stroke-linejoin="round" />
    <path d="M11.5 6H12.5" stroke="currentColor" stroke-width="2" stroke-linecap="round" stroke-linejoin="round" />
    <path d="M2 12V17C2 18.1046 2.89543 19 4 19H5.5" stroke="currentColor" stroke-width="2" stroke-linecap="round" stroke-linejoin="round" />
    <path d="M22 12V17C22 18.1046 21.1046 19 20 19H18.5" stroke="currentColor" stroke-width="2" stroke-linecap="round" stroke-linejoin="round" />
    <path d="M9 4L5.5 6M5.5 6L2 4M5.5 6V10" stroke="currentColor" stroke-width="2" stroke-linejoin="round" />
    <path d="M22 4L18.5 6M18.5 6L15 4M18.5 6V10" stroke="currentColor" stroke-width="2" stroke-linejoin="round" />
    <path d="M15.5 16L12 18M12 18L8.5 16M12 18V22" stroke="currentColor" stroke-width="2" stroke-linejoin="round" />
</svg>