<svg xmlns="http://www.w3.org/2000/svg" width="24" height="24" viewBox="0 0 24 24" fill="none">
    <path opacity="0.4" d="M16.7043 20.2292L18 9H6L7.29568 20.2292C7.41213 21.2384 8.26662 22 9.2825 22H14.7175C15.7334 22 16.5879 21.2384 16.7043 20.2292Z" fill="currentColor" />
    <path d="M18 9L16.7043 20.2292C16.5879 21.2384 15.7334 22 14.7175 22H9.2825C8.26662 22 7.41213 21.2384 7.29568 20.2292L6 9" stroke="currentColor" stroke-width="2" stroke-linejoin="round" />
    <path d="M6 9L6.51444 7.71391C7.41167 5.47084 9.58414 4 12 4C14.4159 4 16.5883 5.47084 17.4856 7.71391L18 9" stroke="currentColor" stroke-width="2" />
    <path d="M5 9L19 9" stroke="currentColor" stroke-width="2" stroke-linecap="round" stroke-linejoin="round" />
    <path d="M13 9L16 2" stroke="currentColor" stroke-width="2" stroke-linecap="round" stroke-linejoin="round" />
    <path d="M10.0089 16.5H10M14 18H13.9911M13.0112 14H13.0023" stroke="currentColor" stroke-width="2" stroke-linecap="round" stroke-linejoin="round" />
</svg>