<svg xmlns="http://www.w3.org/2000/svg" width="24" height="24" viewBox="0 0 24 24" fill="none">
    <path opacity="0.4" fill-rule="evenodd" clip-rule="evenodd" d="M12 2C17.5228 2 22 6.47715 22 12C22 17.5228 17.5228 22 12 22C6.47715 22 2 17.5228 2 12C2 6.47715 6.47715 2 12 2ZM12 8C9.79086 8 8 9.79086 8 12C8 14.2091 9.79086 16 12 16C14.2091 16 16 14.2091 16 12C16 9.79086 14.2091 8 12 8Z" fill="currentColor" />
    <circle cx="12" cy="12" r="10" stroke="currentColor" stroke-width="2" stroke-linejoin="round" />
    <circle cx="12" cy="12" r="4" stroke="currentColor" stroke-width="2" stroke-linejoin="round" />
    <path d="M12 8H21M16 12V21M8 12V3M12 16H3" stroke="currentColor" stroke-width="2" stroke-linecap="round" />
</svg>