<svg xmlns="http://www.w3.org/2000/svg" width="24" height="24" viewBox="0 0 24 24" fill="none">
    <path opacity="0.4" d="M21.4143 10.5858C22.1953 11.3668 22.1953 12.6332 21.4143 13.4142C20.6332 14.1953 19.3669 14.1953 18.5858 13.4142C17.8048 12.6332 17.8048 11.3668 18.5858 10.5858C19.3669 9.80474 20.6332 9.80474 21.4143 10.5858Z" fill="currentColor" />
    <path opacity="0.4" d="M2.00004 17.9998L3.50004 12.4998L7.00004 11L10 14.4998L12.5 12.4998L15 16.9998L14 19.4998L7.50004 21.9998L2.00004 17.9998Z" fill="currentColor" />
    <path d="M15 2L13.5 3.5M9.00004 8L11.5 5.5" stroke="currentColor" stroke-width="2" stroke-linecap="round" stroke-linejoin="round" />
    <path d="M21.4143 10.5858C22.1953 11.3668 22.1953 12.6332 21.4143 13.4142C20.6332 14.1953 19.3669 14.1953 18.5858 13.4142C17.8048 12.6332 17.8048 11.3668 18.5858 10.5858C19.3669 9.80474 20.6332 9.80474 21.4143 10.5858Z" stroke="currentColor" stroke-width="2" />
    <path d="M2.0001 18L3.5001 12.5L7.0001 11.0002L10.0001 14.5L12.5001 12.5L15.0001 17L14.0001 19.5L7.5001 22L2.0001 18Z" stroke="currentColor" stroke-width="2" stroke-linejoin="round" />
    <path d="M21.9998 2.00098L13.9998 10.001" stroke="currentColor" stroke-width="2" stroke-linecap="round" stroke-linejoin="round" />
</svg>