<svg xmlns="http://www.w3.org/2000/svg" width="24" height="24" viewBox="0 0 24 24" fill="none">
    <path opacity="0.4" d="M7 4L4 2V22L7 20L9.5 22L12 20L14.5 22L17 20L20 22V2L17 4L14.5 2L12 4L9.5 2L7 4Z" fill="currentColor" />
    <path d="M7 4L4 2V22L7 20L9.5 22L12 20L14.5 22L17 20L20 22V2L17 4L14.5 2L12 4L9.5 2L7 4Z" stroke="currentColor" stroke-width="2" stroke-linecap="round" stroke-linejoin="round" />
    <path d="M15 9L9 15" stroke="currentColor" stroke-width="2" stroke-linecap="round" stroke-linejoin="round" />
    <path d="M15 15H14.991M9.00897 9H9" stroke="currentColor" stroke-width="2" stroke-linecap="round" stroke-linejoin="round" />
</svg>