<svg xmlns="http://www.w3.org/2000/svg" width="24" height="24" viewBox="0 0 24 24" fill="none">
    <path opacity="0.4" d="M11 22C12.0609 22 13.0736 21.9229 14 21.7822V16.5H19V5C19 6.65685 15.4183 8 11 8C6.58172 8 3 6.65685 3 5V19C3 20.6569 6.58172 22 11 22Z" fill="currentColor" />
    <ellipse cx="11" cy="5" rx="8" ry="3" stroke="currentColor" stroke-width="2" stroke-linejoin="round" />
    <path d="M3 12C3 13.5299 6.48993 14.8155 11 15" stroke="currentColor" stroke-width="2" stroke-linecap="round" />
    <path d="M6 11C6.60158 11.1808 7.27434 11.3898 8 11.5" stroke="currentColor" stroke-width="2" stroke-linecap="round" />
    <path d="M6 18C6.60158 18.1808 7.27434 18.3898 8 18.5" stroke="currentColor" stroke-width="2" stroke-linecap="round" />
    <path d="M11 22C6.58172 22 3 20.6569 3 19V5M19 5V10" stroke="currentColor" stroke-width="2" stroke-linecap="round" stroke-linejoin="round" />
    <path d="M15.5 16.5H14V22H21V16.5H19.5M15.5 16.5V15C15.5 13.8954 16.3954 13 17.5 13C18.6046 13 19.5 13.8954 19.5 15V16.5M15.5 16.5H19.5" stroke="currentColor" stroke-width="2" stroke-linejoin="round" />
</svg>