<svg xmlns="http://www.w3.org/2000/svg" width="24" height="24" viewBox="0 0 24 24" fill="none">
    <path opacity="0.4" d="M17 12H12V17H17L19 14.5L17 12Z" fill="currentColor" />
    <path opacity="0.4" d="M17 2H12V7H17L19 4.5L17 2Z" fill="currentColor" />
    <path opacity="0.4" d="M7 7H12V12H7L5 9.5L7 7Z" fill="currentColor" />
    <path d="M17 12H12V17H17L19 14.5L17 12Z" stroke="currentColor" stroke-width="2" stroke-linecap="round" stroke-linejoin="round" />
    <path d="M17 2H12V7H17L19 4.5L17 2Z" stroke="currentColor" stroke-width="2" stroke-linecap="round" stroke-linejoin="round" />
    <path d="M7 7H12V12H7L5 9.5L7 7Z" stroke="currentColor" stroke-width="2" stroke-linecap="round" stroke-linejoin="round" />
    <path d="M12 22L12 2" stroke="currentColor" stroke-width="2" stroke-linejoin="round" />
    <path d="M9 22L15 22" stroke="currentColor" stroke-width="2" stroke-linecap="round" stroke-linejoin="round" />
</svg>