<svg xmlns="http://www.w3.org/2000/svg" width="24" height="24" viewBox="0 0 24 24" fill="none">
    <path opacity="0.4" d="M9 7.35221L3 7.35208C3 12.2159 9 12.216 9 7.35221Z" fill="currentColor" />
    <path opacity="0.4" d="M12 12C12 16.9706 16.0294 21 21 21V3C16.0294 3 12 7.02944 12 12Z" fill="currentColor" />
    <path d="M21 17C18.2386 17 16 14.7614 16 12C16 9.23858 18.2386 7 21 7" stroke="currentColor" stroke-width="2" stroke-linecap="round" stroke-linejoin="round" />
    <path d="M21 21C16.0294 21 12 16.9706 12 12C12 7.02944 16.0294 3 21 3" stroke="currentColor" stroke-width="2" stroke-linecap="round" stroke-linejoin="round" />
    <path d="M6 3L6 7.5M6 21L6 11" stroke="currentColor" stroke-width="2" stroke-linecap="round" stroke-linejoin="round" />
    <path d="M3 7.5L9 7.5" stroke="currentColor" stroke-width="2" stroke-linejoin="round" />
    <path d="M9 3L9 7.35224C9 12.216 3 12.2159 3 7.35207L3 3" stroke="currentColor" stroke-width="2" stroke-linecap="round" stroke-linejoin="round" />
</svg>