<svg xmlns="http://www.w3.org/2000/svg" width="24" height="24" viewBox="0 0 24 24" fill="none">
    <g opacity="0.4">
        <path d="M11.9998 2C6.9585 2 2.78853 5.73037 2.09961 10.5813C3.32458 10.8553 4.59974 11 5.90937 11C11.1676 11 15.8703 8.66742 18.9998 5L19.0658 4.9239C17.2565 3.11721 14.7586 2 11.9998 2Z" fill="currentColor" />
        <path d="M11.9998 22C17.0992 22 21.3072 18.1829 21.9224 13.2501C21.0199 13.0856 20.0927 13 19.147 13C13.7946 13 9.0341 15.7425 5.99975 20L5.99395 19.9964C7.66626 21.2544 9.74593 22 11.9998 22Z" fill="currentColor" />
    </g>
    <circle cx="12" cy="12" r="10" stroke="currentColor" stroke-width="2" stroke-linecap="round" stroke-linejoin="round" />
    <path d="M22 13.2644C21.0732 13.0906 20.12 13 19.1472 13C13.7948 13 9.03435 15.7425 6 20" stroke="currentColor" stroke-width="2" stroke-linejoin="round" />
    <path d="M19 5C15.8705 8.66742 11.1679 11 5.90962 11C4.56437 11 3.25548 10.8473 2 10.5587" stroke="currentColor" stroke-width="2" stroke-linejoin="round" />
    <path d="M14.6178 22C14.8684 20.786 15 19.5287 15 18.2407C15 11.9247 11.8343 6.34645 7 3" stroke="currentColor" stroke-width="2" stroke-linejoin="round" />
</svg>