<svg xmlns="http://www.w3.org/2000/svg" width="24" height="24" viewBox="0 0 24 24" fill="none">
    <path opacity="0.4" d="M11.4346 2.42125C9.53491 3.88072 3.5 8.89368 3.5 13.678C3.5 17.7804 6.71878 22 12 22C17.2812 22 20.5 17.7804 20.5 13.678C20.5 8.89368 14.4651 3.88072 12.5654 2.42125C12.2298 2.16343 11.7702 2.16343 11.4346 2.42125Z" fill="currentColor" />
    <path d="M11.4346 2.42125C9.53491 3.88072 3.5 8.89368 3.5 13.678C3.5 17.7804 6.71878 22 12 22C17.2812 22 20.5 17.7804 20.5 13.678C20.5 8.89368 14.4651 3.88072 12.5654 2.42125C12.2298 2.16343 11.7702 2.16343 11.4346 2.42125Z" stroke="currentColor" stroke-width="2" stroke-linejoin="round" />
    <path d="M16 14C16 16.2091 14.2091 18 12 18" stroke="currentColor" stroke-width="2" stroke-linecap="round" stroke-linejoin="round" />
</svg>