<svg xmlns="http://www.w3.org/2000/svg" width="24" height="24" viewBox="0 0 24 24" fill="none">
    <path opacity="0.4" d="M12 20.4999C12 20.4999 2 14.4999 2 8.69438C2 5.82557 4.10526 3.49994 7 3.49994C8.5 3.49994 10 3.99994 12 5.99994C14 3.99994 15.5 3.49994 17 3.49994C19.8947 3.49994 22 5.82557 22 8.69438C22 14.4999 12 20.4999 12 20.4999Z" fill="currentColor" />
    <path d="M12 5.99854L14 9.00049L11.5 11.9999L13.5 13.9999L12.5 16.0005" stroke="currentColor" stroke-width="2" stroke-linecap="round" stroke-linejoin="round" />
    <path d="M12 20.4999C12 20.4999 2 14.4999 2 8.69438C2 5.82557 4.10526 3.49994 7 3.49994C8.5 3.49994 10 3.99994 12 5.99994C14 3.99994 15.5 3.49994 17 3.49994C19.8947 3.49994 22 5.82557 22 8.69438C22 14.4999 12 20.4999 12 20.4999Z" stroke="currentColor" stroke-width="2" stroke-linecap="round" stroke-linejoin="round" />
</svg>