<svg xmlns="http://www.w3.org/2000/svg" width="24" height="24" viewBox="0 0 24 24" fill="none">
    <path opacity="0.4" d="M12 20.4999C12 20.4999 2 14.4999 2 8.69438C2 5.82557 4.10526 3.49994 7 3.49994C8.5 3.49994 10 3.99994 12 5.99994C14 3.99994 15.5 3.49994 17 3.49994C19.8947 3.49994 22 5.82557 22 8.69438C22 14.4999 12 20.4999 12 20.4999Z" fill="currentColor" />
    <path d="M14 15.9999H17.5M17.5 15.9999H21M17.5 15.9999V12.4999M17.5 15.9999V19.4999" stroke="currentColor" stroke-width="2" stroke-linecap="round" stroke-linejoin="round" />
    <path d="M13.522 19.4999C12.607 20.1357 12 20.4999 12 20.4999C12 20.4999 2 14.4999 2 8.69438C2 5.82557 4.10526 3.49994 7 3.49994C8.5 3.49994 10 3.99994 12 5.99994C14 3.99994 15.5 3.49994 17 3.49994C19.8947 3.49994 22 5.82557 22 8.69438C22 9.48017 21.8168 10.2695 21.5 11.0471" stroke="currentColor" stroke-width="2" stroke-linecap="round" stroke-linejoin="round" />
</svg>