<svg xmlns="http://www.w3.org/2000/svg" width="24" height="24" viewBox="0 0 24 24" fill="none">
    <path opacity="0.4" d="M12.5 15V20H8.5V6.8L14.5 2L20.5 6.8V20H16.5V15C16.5 14.4477 16.0523 14 15.5 14H13.5C12.9477 14 12.5 14.4477 12.5 15Z" fill="currentColor" />
    <path d="M7 8L14.5 2L22 8" stroke="currentColor" stroke-width="2" stroke-linecap="round" stroke-linejoin="round" />
    <path d="M8.5 7V20M20.5 20V7" stroke="currentColor" stroke-width="2" stroke-linecap="round" stroke-linejoin="round" />
    <ellipse cx="3.5" cy="12" rx="1.5" ry="2" stroke="currentColor" stroke-width="2" stroke-linecap="round" stroke-linejoin="round" />
    <path d="M3.5 14V20" stroke="currentColor" stroke-width="2" stroke-linecap="round" stroke-linejoin="round" />
    <path d="M2 20H22" stroke="currentColor" stroke-width="2" stroke-linecap="round" stroke-linejoin="round" />
    <path d="M12.5 20V15C12.5 14.4477 12.9477 14 13.5 14H15.5C16.0523 14 16.5 14.4477 16.5 15V20" stroke="currentColor" stroke-width="2" stroke-linecap="round" stroke-linejoin="round" />
    <path d="M13.5 9H15.5" stroke="currentColor" stroke-width="2" stroke-linecap="round" stroke-linejoin="round" />
</svg>