<svg xmlns="http://www.w3.org/2000/svg" width="24" height="24" viewBox="0 0 24 24" fill="none">
    <path opacity="0.4" d="M2.17926 6C2.17926 4.89543 3.07469 4 4.17926 4H16.625C16.9698 4 17.2903 4.17762 17.473 4.47L21.5168 10.94C21.9221 11.5885 21.9221 12.4115 21.5168 13.06L17.473 19.53C17.2903 19.8224 16.9698 20 16.625 20H4.17926C3.07469 20 2.17926 19.1046 2.17926 18V6Z" fill="currentColor" />
    <path d="M2.17926 6C2.17926 4.89543 3.07469 4 4.17926 4H16.625C16.9698 4 17.2903 4.17762 17.473 4.47L21.5168 10.94C21.9221 11.5885 21.9221 12.4115 21.5168 13.06L17.473 19.53C17.2903 19.8224 16.9698 20 16.625 20H4.17926C3.07469 20 2.17926 19.1046 2.17926 18V6Z" stroke="currentColor" stroke-width="2" stroke-linecap="round" stroke-linejoin="round" />
</svg>