<svg xmlns="http://www.w3.org/2000/svg" width="24" height="24" viewBox="0 0 24 24" fill="none">
    <path opacity="0.4" d="M8.5 16.5V11H10H14H15.5V16.5H8.5Z" fill="currentColor" />
    <path d="M21.2154 16.0002C19.6684 19.532 16.1355 22.0002 12.0247 22.0002C6.48823 22.0002 2 17.5231 2 12.0002C2 6.47738 6.48823 2.00023 12.0247 2.00023C17.2229 2.00023 21.497 5.94691 22 11.0002L19.5 10" stroke="currentColor" stroke-width="2" stroke-linecap="round" stroke-linejoin="round" />
    <path d="M10 11H8.5V16.5H15.5V11H14M10 11V9.49998C10 8.39542 10.8954 7.49998 12 7.49998C13.1046 7.49998 14 8.39542 14 9.49998V11M10 11H14" stroke="currentColor" stroke-width="2" stroke-linejoin="round" />
</svg>