<svg xmlns="http://www.w3.org/2000/svg" width="24" height="24" viewBox="0 0 24 24" fill="none">
    <path opacity="0.4" d="M22 12C22 6.47715 17.5228 2 12 2C6.47728 2.00015 2 6.47724 2 12C2 17.5228 6.47728 21.9999 12 22C17.5228 22 22 17.5228 22 12Z" fill="currentColor" />
    <path d="M18.5 4.40041C16.752 2.9039 14.4815 2 12 2C6.47715 2 2 6.47715 2 12C2 17.5228 6.47715 22 12 22C14.4815 22 16.752 21.0961 18.5 19.5996" stroke="currentColor" stroke-width="2" stroke-linecap="round" stroke-linejoin="round" />
    <path d="M18 16L22 12L18 8M21 12H9" stroke="currentColor" stroke-width="2" stroke-linecap="round" stroke-linejoin="round" />
</svg>