<svg xmlns="http://www.w3.org/2000/svg" width="24" height="24" viewBox="0 0 24 24" fill="none">
    <path opacity="0.4" d="M22 5C22 3.89543 21.1046 3 20 3H4C2.89543 3 2 3.89543 2 5V17C2 18.1046 2.89543 19 4 19H14V18.5L19.5 13L22 15.5V5Z" fill="currentColor" />
    <path d="M10.5 19H4C2.89543 19 2 18.1046 2 17V5C2 3.89543 2.89543 3 4 3H20C21.1046 3 22 3.89543 22 5V10" stroke="currentColor" stroke-width="2" stroke-linecap="round" stroke-linejoin="round" />
    <path d="M14 18.5V21H16.5L22 15.5L19.5 13L14 18.5Z" stroke="currentColor" stroke-width="2" stroke-linejoin="round" />
    <path d="M6 7L10.9923 9.91215C11.615 10.2754 12.385 10.2754 13.0077 9.91215L18 7" stroke="currentColor" stroke-width="2" stroke-linecap="round" stroke-linejoin="round" />
</svg>