<svg xmlns="http://www.w3.org/2000/svg" width="24" height="24" viewBox="0 0 24 24" fill="none">
    <path opacity="0.4" fill-rule="evenodd" clip-rule="evenodd" d="M20 2C21.1046 2 22 2.89543 22 4V20C22 21.1046 21.1046 22 20 22H6C4.89543 22 4 21.1046 4 20V4C4 2.89543 4.89543 2 6 2H20ZM9.5 10H17.5V6H9.5V10Z" fill="currentColor" />
    <path d="M6 22H20C21.1046 22 22 21.1046 22 20V4C22 2.89543 21.1046 2 20 2H6C4.89543 2 4 2.89543 4 4V20C4 21.1046 4.89543 22 6 22Z" stroke="currentColor" stroke-width="2" stroke-linecap="round" stroke-linejoin="round" />
    <path d="M9.5 10H17.5V6H9.5V10Z" stroke="currentColor" stroke-width="2" stroke-linecap="round" stroke-linejoin="round" />
    <path d="M6 6L2 6M6 12H2M6 18H2" stroke="currentColor" stroke-width="2" stroke-linecap="round" stroke-linejoin="round" />
</svg>