<svg xmlns="http://www.w3.org/2000/svg" width="24" height="24" viewBox="0 0 24 24" fill="none">
    <path opacity="0.4" d="M6 22H18C19.1046 22 20 21.1045 20 20V3.99997C20 2.8954 19.1046 1.99997 18 1.99997H6C4.89543 1.99997 4 2.8954 4 3.99997V20C4 21.1045 4.89543 22 6 22Z" fill="currentColor" />
    <path d="M6 21.9998H18C19.1046 21.9998 20 21.1044 20 19.9998V3.99985C20 2.89528 19.1046 1.99985 18 1.99985H6C4.89543 1.99985 4 2.89528 4 3.99985V19.9998C4 21.1044 4.89543 21.9998 6 21.9998Z" stroke="currentColor" stroke-width="2" stroke-linejoin="round" />
    <path d="M12 11L12 13M12 5.49997L12 7.49997M12 16.5L12 18.5" stroke="currentColor" stroke-width="2" stroke-linecap="round" stroke-linejoin="round" />
</svg>