<svg xmlns="http://www.w3.org/2000/svg" width="24" height="24" viewBox="0 0 24 24" fill="none">
    <path opacity="0.4" d="M7 10.5V22L10 22V18C10 17.4477 10.4477 17 11 17H13C13.5523 17 14 17.4477 14 18V22L17 22V10.5L12 6.5L7 10.5Z" fill="currentColor" />
    <g opacity="0.4">
        <path d="M21 16V22H17V14L21 16Z" fill="currentColor" />
        <path d="M3 16V22H7V14L3 16Z" fill="currentColor" />
    </g>
    <path d="M7 22V10.5L12 6.5L17 10.5V22" stroke="currentColor" stroke-width="2" stroke-linecap="round" stroke-linejoin="round" />
    <path d="M12 13H12.009" stroke="currentColor" stroke-width="2" stroke-linecap="round" stroke-linejoin="round" />
    <path d="M21 22V16L17 14" stroke="currentColor" stroke-width="2" stroke-linecap="round" stroke-linejoin="round" />
    <path d="M3 22V16L7 14" stroke="currentColor" stroke-width="2" stroke-linecap="round" stroke-linejoin="round" />
    <path d="M2 22H22" stroke="currentColor" stroke-width="2" stroke-linecap="round" stroke-linejoin="round" />
    <path d="M12 6.5V4.9822M12 4.9822V2L15.5 3V4.9822H12Z" stroke="currentColor" stroke-width="2" stroke-linecap="round" stroke-linejoin="round" />
    <path d="M10 22V18C10 17.4477 10.4477 17 11 17H13C13.5523 17 14 17.4477 14 18V22" stroke="currentColor" stroke-width="2" stroke-linecap="round" stroke-linejoin="round" />
</svg>