<svg xmlns="http://www.w3.org/2000/svg" width="24" height="24" viewBox="0 0 24 24" fill="none">
    <path opacity="0.4" d="M20 19V13C20 11.8954 19.1046 11 18 11H6C4.89543 11 4 11.8954 4 13V19C4 20.1046 4.89543 21 6 21H18C19.1046 21 20 20.1046 20 19Z" fill="currentColor" />
    <path d="M16 11H18C19.1046 11 20 11.8954 20 13V19C20 20.1046 19.1046 21 18 21H6C4.89543 21 4 20.1046 4 19V13C4 11.8954 4.89543 11 6 11H8" stroke="currentColor" stroke-width="2" stroke-linecap="round" stroke-linejoin="round" />
    <path d="M12 15V4M8 7L12 3L16 7" stroke="currentColor" stroke-width="2" stroke-linecap="round" stroke-linejoin="round" />
</svg>