<svg xmlns="http://www.w3.org/2000/svg" width="24" height="24" viewBox="0 0 24 24" fill="none">
    <path opacity="0.4" d="M10 3C12.7614 3 15 5.23858 15 8C15 10.7614 12.7614 13 10 13C13.866 13 17 16.134 17 20H3C3 16.134 6.13401 13 10 13C7.23858 13 5 10.7614 5 8C5 5.23858 7.23858 3 10 3Z" fill="currentColor" />
    <path d="M15 8C15 5.23858 12.7614 3 10 3C7.23858 3 5 5.23858 5 8C5 10.7614 7.23858 13 10 13C12.7614 13 15 10.7614 15 8Z" stroke="currentColor" stroke-width="2" stroke-linecap="round" stroke-linejoin="round" />
    <path d="M17.5 21L17.5 14M14 17.5H21" stroke="currentColor" stroke-width="2" stroke-linecap="round" stroke-linejoin="round" />
    <path d="M3 20C3 16.134 6.13401 13 10 13C11.4872 13 12.8662 13.4638 14 14.2547" stroke="currentColor" stroke-width="2" stroke-linecap="round" stroke-linejoin="round" />
</svg>