<svg xmlns="http://www.w3.org/2000/svg" width="24" height="24" viewBox="0 0 24 24" fill="none">
    <path opacity="0.4" d="M10.0019 22L8.5 16H6.49906C6.0308 15.1485 5.99477 14.0196 6.0005 13.5C6.00438 11.7876 7 10 8 9C8.1655 8.66667 9.19719 8 12 8C14.8028 8 15.8345 8.66667 16 9C17 10 17.9991 11.7856 18.003 13.5C18.0087 14.0196 17.9727 15.1485 17.5044 16H15.5035L14.0016 22H10.0019Z" fill="currentColor" />
    <circle cx="12" cy="5" r="3" stroke="currentColor" stroke-width="2" />
    <path d="M8 9C7 10 6.00438 11.7876 6.0005 13.5C5.99477 14.0196 6.0308 15.1485 6.49906 16H8.5L10.0019 22H14.0016L15.5035 16H17.5044C17.9727 15.1485 18.0087 14.0196 18.003 13.5C17.9991 11.7856 17 10 16 9" stroke="currentColor" stroke-width="2" stroke-linecap="round" stroke-linejoin="round" />
</svg>