<svg xmlns="http://www.w3.org/2000/svg" width="24" height="24" viewBox="0 0 24 24" fill="none">
    <path d="M10 22H3V2H12L19 9V10M12 2.5V9H18.5" stroke="currentColor" stroke-width="2" stroke-linecap="square" />
    <path d="M21 14.5V20.5C21 21.3284 19.2091 22 17 22C14.7909 22 13 21.3284 13 20.5V14.5M21 14.5C21 15.3284 19.2091 16 17 16C14.7909 16 13 15.3284 13 14.5M21 14.5C21 13.6716 19.2091 13 17 13C14.7909 13 13 13.6716 13 14.5" stroke="currentColor" stroke-width="2" stroke-linecap="square" />
    <path d="M21 17.5C21 18.3284 19.2091 19 17 19C14.7909 19 13 18.3284 13 17.5" stroke="currentColor" stroke-width="2" stroke-linecap="square" />
</svg>