<svg xmlns="http://www.w3.org/2000/svg" width="24" height="24" viewBox="0 0 24 24" fill="none">
    <path d="M5.4 10.5l-2.1 3.9c-1.1 2-1.6 3-1.2 3.8.4.8 1.5.8 3.6.8h2.1c1.3 0 1.9 0 2.3-.4.4-.4.4-1.2.4-2.6v-3.9c0-4.5 0-6.7-1-7-1-.3-2 1.6-4.1 5.5Z" stroke="currentColor" stroke-width="2" stroke-linejoin="round" />
    <path d="M18.6 10.5l2.1 3.9c1.1 2 1.6 3 1.2 3.8-.4.8-1.5.8-3.6.8h-2.1c-1.3 0-1.9 0-2.3-.4-.4-.4-.4-1.2-.4-2.6v-3.9c0-4.5 0-6.7 1-7 1-.3 2 1.6 4.1 5.5Z" stroke="currentColor" stroke-width="2" stroke-linejoin="round" />
</svg>