<svg xmlns="http://www.w3.org/2000/svg" width="24" height="24" viewBox="0 0 24 24" fill="none">
    <path fill-rule="evenodd" clip-rule="evenodd" d="M7.2 5.8c-.7 1-1.4 2.4-2.4 4.3l-2.1 4c-.5 1-.9 1.8-1.2 2.4-.2.7-.4 1.4 0 2 .4.7 1 .9 1.7 1.1.6.1 1.5.1 2.5.1h2.2c.6 0 1.1 0 1.6 0 .5 0 .9-.2 1.3-.6.3-.4.5-.9.5-1.3 0-.5 0-1 0-1.7h0v-4h0c0-2.2 0-3.9-.1-5.1 0-.6-.2-1.1-.4-1.6-.2-.4-.5-.9-1.1-1-.5-.2-1 0-1.4.3-.4.3-.7.7-1 1.2ZM16.8 5.8c.7 1 1.4 2.4 2.4 4.3l2.1 4c.5 1 .9 1.8 1.2 2.4.2.7.4 1.4 0 2-.4.7-1 .9-1.7 1.1-.6.1-1.5.1-2.5.1h-2.2c-.6 0-1.1 0-1.6 0-.5 0-.9-.2-1.3-.6-.3-.4-.5-.9-.5-1.3 0-.5 0-1 0-1.7h0v-4h0c0-2.2 0-3.9.1-5.1 0-.6.2-1.1.4-1.6.2-.4.5-.9 1.1-1 .5-.2 1 0 1.4.3.4.3.7.7 1 1.2Z" fill="currentColor" />
</svg>