<svg xmlns="http://www.w3.org/2000/svg" width="24" height="24" viewBox="0 0 24 24" fill="none">
    <path d="M5.5 1.75C3.42893 1.75 1.75 3.42893 1.75 5.5V7.25H22.25V5.5C22.25 3.42893 20.5711 1.75 18.5 1.75H5.5Z" fill="currentColor" />
    <path d="M22.25 8.75H12.75V12.25H22.25V8.75Z" fill="currentColor" />
    <path d="M22.25 13.75H12.75V17.25H22.25V13.75Z" fill="currentColor" />
    <path d="M22.2418 18.75H12.75V22.25H18.5C20.4871 22.25 22.1132 20.7045 22.2418 18.75Z" fill="currentColor" />
    <path d="M11.25 17.25V13.75H1.75V17.25H11.25Z" fill="currentColor" />
    <path d="M1.7582 18.75H11.25V22.25H5.5C3.51294 22.25 1.88685 20.7045 1.7582 18.75Z" fill="currentColor" />
    <path d="M1.75 12.25H11.25V8.75H1.75V12.25Z" fill="currentColor" />
</svg>